<mxfile host="app.diagrams.net" modified="2020-12-07T08:53:20.409Z" agent="5.0 (Windows)" etag="sw7ucqsWre3ILE3PcAFt" version="13.10.9" type="github">
  <diagram id="LxWzI_KoLAY_xD3F1j8h" name="Page-1">
    <mxGraphModel dx="1422" dy="735" grid="1" gridSize="10" guides="1" tooltips="1" connect="1" arrows="1" fold="1" page="1" pageScale="1" pageWidth="827" pageHeight="1169" background="#114B5F" math="0" shadow="0">
      <root>
        <mxCell id="0" />
        <mxCell id="1" parent="0" />
        <mxCell id="8FBoQUWGb5vzRmkLJHT1-13" style="edgeStyle=orthogonalEdgeStyle;rounded=0;orthogonalLoop=1;jettySize=auto;html=1;exitX=0.5;exitY=0;exitDx=0;exitDy=0;exitPerimeter=0;entryX=0;entryY=0.5;entryDx=0;entryDy=0;" edge="1" parent="1" source="RWbVS4ckmjx5XI7GOgI_-1" target="RWbVS4ckmjx5XI7GOgI_-3">
          <mxGeometry relative="1" as="geometry" />
        </mxCell>
        <mxCell id="8FBoQUWGb5vzRmkLJHT1-16" style="edgeStyle=orthogonalEdgeStyle;rounded=0;orthogonalLoop=1;jettySize=auto;html=1;exitX=1;exitY=0.3333333333333333;exitDx=0;exitDy=0;exitPerimeter=0;entryX=0;entryY=0.5;entryDx=0;entryDy=0;" edge="1" parent="1" source="RWbVS4ckmjx5XI7GOgI_-1" target="RWbVS4ckmjx5XI7GOgI_-5">
          <mxGeometry relative="1" as="geometry" />
        </mxCell>
        <mxCell id="RWbVS4ckmjx5XI7GOgI_-1" value="User" style="shape=umlActor;verticalLabelPosition=bottom;verticalAlign=top;html=1;outlineConnect=0;fontColor=#E4FDE1;fillColor=none;strokeColor=#FFFFFF;" parent="1" vertex="1">
          <mxGeometry x="80" y="280" width="30" height="60" as="geometry" />
        </mxCell>
        <mxCell id="RWbVS4ckmjx5XI7GOgI_-2" value="" style="whiteSpace=wrap;html=1;aspect=fixed;fillColor=none;strokeColor=#028090;fontColor=#E4FDE1;" parent="1" vertex="1">
          <mxGeometry x="140" y="80" width="620" height="620" as="geometry" />
        </mxCell>
        <mxCell id="RWbVS4ckmjx5XI7GOgI_-3" value="Changer les paramètres d&#39;infection" style="rounded=1;whiteSpace=wrap;html=1;fillColor=none;fontColor=#E4FDE1;strokeColor=#FFFFFF;" parent="1" vertex="1">
          <mxGeometry x="190" y="130" width="120" height="60" as="geometry" />
        </mxCell>
        <mxCell id="RWbVS4ckmjx5XI7GOgI_-4" value="" style="rounded=1;whiteSpace=wrap;html=1;fillColor=none;fontColor=#E4FDE1;strokeColor=#FFFFFF;" parent="1" vertex="1">
          <mxGeometry x="620" y="630" width="120" height="60" as="geometry" />
        </mxCell>
        <mxCell id="RWbVS4ckmjx5XI7GOgI_-5" value="Choisir les politques" style="rounded=1;whiteSpace=wrap;html=1;fillColor=none;fontColor=#E4FDE1;strokeColor=#FFFFFF;" parent="1" vertex="1">
          <mxGeometry x="170" y="270" width="120" height="60" as="geometry" />
        </mxCell>
        <mxCell id="RWbVS4ckmjx5XI7GOgI_-6" value="" style="rounded=1;whiteSpace=wrap;html=1;fillColor=none;fontColor=#E4FDE1;strokeColor=#FFFFFF;" parent="1" vertex="1">
          <mxGeometry x="620" y="480" width="120" height="60" as="geometry" />
        </mxCell>
        <mxCell id="RWbVS4ckmjx5XI7GOgI_-7" value="" style="rounded=1;whiteSpace=wrap;html=1;fillColor=none;fontColor=#E4FDE1;strokeColor=#FFFFFF;" parent="1" vertex="1">
          <mxGeometry x="620" y="200" width="120" height="60" as="geometry" />
        </mxCell>
        <mxCell id="RWbVS4ckmjx5XI7GOgI_-8" value="" style="rounded=1;whiteSpace=wrap;html=1;fillColor=none;fontColor=#E4FDE1;strokeColor=#FFFFFF;" parent="1" vertex="1">
          <mxGeometry x="620" y="130" width="120" height="60" as="geometry" />
        </mxCell>
        <mxCell id="RWbVS4ckmjx5XI7GOgI_-9" value="" style="rounded=1;whiteSpace=wrap;html=1;fillColor=none;fontColor=#E4FDE1;strokeColor=#FFFFFF;" parent="1" vertex="1">
          <mxGeometry x="480" y="410" width="120" height="60" as="geometry" />
        </mxCell>
        <mxCell id="RWbVS4ckmjx5XI7GOgI_-10" value="" style="rounded=1;whiteSpace=wrap;html=1;fillColor=none;fontColor=#E4FDE1;strokeColor=#FFFFFF;" parent="1" vertex="1">
          <mxGeometry x="480" y="130" width="120" height="60" as="geometry" />
        </mxCell>
        <mxCell id="RWbVS4ckmjx5XI7GOgI_-12" value="Lancer la simulation" style="rounded=1;whiteSpace=wrap;html=1;fillColor=none;fontColor=#E4FDE1;strokeColor=#FFFFFF;" parent="1" vertex="1">
          <mxGeometry x="210" y="540" width="120" height="60" as="geometry" />
        </mxCell>
        <mxCell id="RWbVS4ckmjx5XI7GOgI_-13" value="" style="rounded=1;whiteSpace=wrap;html=1;fillColor=none;fontColor=#E4FDE1;strokeColor=#FFFFFF;" parent="1" vertex="1">
          <mxGeometry x="480" y="555" width="120" height="60" as="geometry" />
        </mxCell>
        <mxCell id="RWbVS4ckmjx5XI7GOgI_-14" value="Arrêter la simulation" style="rounded=1;whiteSpace=wrap;html=1;fillColor=none;fontColor=#E4FDE1;strokeColor=#FFFFFF;" parent="1" vertex="1">
          <mxGeometry x="200" y="460" width="120" height="60" as="geometry" />
        </mxCell>
        <mxCell id="RWbVS4ckmjx5XI7GOgI_-15" value="" style="rounded=1;whiteSpace=wrap;html=1;fillColor=none;fontColor=#E4FDE1;strokeColor=#FFFFFF;" parent="1" vertex="1">
          <mxGeometry x="620" y="270" width="120" height="60" as="geometry" />
        </mxCell>
        <mxCell id="8FBoQUWGb5vzRmkLJHT1-4" value="" style="rounded=1;whiteSpace=wrap;html=1;fillColor=none;fontColor=#E4FDE1;strokeColor=#FFFFFF;" vertex="1" parent="1">
          <mxGeometry x="480" y="480" width="120" height="60" as="geometry" />
        </mxCell>
        <mxCell id="8FBoQUWGb5vzRmkLJHT1-6" value="" style="rounded=1;whiteSpace=wrap;html=1;fillColor=none;fontColor=#E4FDE1;strokeColor=#FFFFFF;" vertex="1" parent="1">
          <mxGeometry x="480" y="340" width="120" height="60" as="geometry" />
        </mxCell>
        <mxCell id="8FBoQUWGb5vzRmkLJHT1-7" value="" style="rounded=1;whiteSpace=wrap;html=1;fillColor=none;fontColor=#E4FDE1;strokeColor=#FFFFFF;" vertex="1" parent="1">
          <mxGeometry x="620" y="410" width="120" height="60" as="geometry" />
        </mxCell>
        <mxCell id="8FBoQUWGb5vzRmkLJHT1-9" value="" style="rounded=1;whiteSpace=wrap;html=1;fillColor=none;fontColor=#E4FDE1;strokeColor=#FFFFFF;" vertex="1" parent="1">
          <mxGeometry x="480" y="200" width="120" height="60" as="geometry" />
        </mxCell>
        <mxCell id="8FBoQUWGb5vzRmkLJHT1-10" value="" style="rounded=1;whiteSpace=wrap;html=1;fillColor=none;fontColor=#E4FDE1;strokeColor=#FFFFFF;" vertex="1" parent="1">
          <mxGeometry x="620" y="340" width="120" height="60" as="geometry" />
        </mxCell>
        <mxCell id="8FBoQUWGb5vzRmkLJHT1-11" value="" style="rounded=1;whiteSpace=wrap;html=1;fillColor=none;fontColor=#E4FDE1;strokeColor=#FFFFFF;" vertex="1" parent="1">
          <mxGeometry x="620" y="555" width="120" height="60" as="geometry" />
        </mxCell>
        <mxCell id="8FBoQUWGb5vzRmkLJHT1-12" value="" style="rounded=1;whiteSpace=wrap;html=1;fillColor=none;fontColor=#E4FDE1;strokeColor=#FFFFFF;" vertex="1" parent="1">
          <mxGeometry x="480" y="270" width="120" height="60" as="geometry" />
        </mxCell>
      </root>
    </mxGraphModel>
  </diagram>
</mxfile>
